<?xml version="1.0" standalone="no"?>
<!DOCTYPE svg PUBLIC "-//W3C//DTD SVG 20010904//EN"
 "http://www.w3.org/TR/2001/REC-SVG-20010904/DTD/svg10.dtd">
<svg version="1.0" xmlns="http://www.w3.org/2000/svg"
 width="194.000000pt" height="259.000000pt" viewBox="0 0 194.000000 259.000000"
 preserveAspectRatio="xMidYMid meet">

<g transform="translate(0.000000,259.000000) scale(0.100000,-0.100000)"
fill="#000000" stroke="none">
<path d="M1880 2586 c0 -2 14 -6 30 -8 17 -3 30 -1 30 4 0 4 -13 8 -30 8 -16
0 -30 -2 -30 -4z"/>
<path d="M838 2069 c-47 -12 -95 -48 -108 -79 -18 -43 -17 -98 3 -117 10 -10
17 -13 17 -5 0 6 7 9 15 6 8 -4 15 -17 15 -31 0 -32 33 -76 47 -62 7 7 12 6
16 -5 6 -16 -18 -30 -36 -19 -7 3 1 -6 17 -21 18 -17 38 -27 55 -26 40 3 47 1
31 -10 -8 -5 -30 -10 -47 -10 -27 0 -33 4 -34 23 -1 21 -1 20 -12 -5 -7 -14
-25 -38 -40 -52 -15 -14 -27 -34 -27 -46 0 -17 6 -20 49 -20 34 0 56 6 75 21
30 24 32 20 11 -22 -16 -29 -15 -29 5 -17 11 7 20 16 20 20 0 5 8 8 18 8 11 0
-3 -19 -43 -55 l-60 -56 80 57 80 57 -50 -52 c-57 -59 -101 -86 -108 -67 -7
16 3 68 16 84 6 8 6 12 -2 12 -14 0 -38 -37 -46 -72 -4 -16 -11 -28 -15 -28
-4 0 -10 -9 -13 -21 -4 -13 -10 -18 -18 -14 -8 6 -10 -1 -7 -23 4 -25 2 -29
-9 -21 -7 7 -10 21 -7 34 3 13 1 25 -4 29 -5 3 -13 -9 -17 -27 l-7 -32 -11 28
c-15 37 -31 29 -38 -19 -5 -37 -6 -38 -13 -12 -4 15 -3 35 3 46 6 12 11 30 11
41 0 11 12 34 27 52 23 27 24 30 6 21 -28 -16 -67 -98 -68 -145 0 -33 -1 -35
-13 -20 -23 30 -9 99 29 145 18 23 28 39 22 35 -6 -4 -16 0 -23 8 -11 13 -6
15 36 16 27 1 52 1 57 0 4 0 7 4 7 10 0 12 -129 7 -179 -7 -17 -5 -22 -4 -17
4 4 7 16 12 26 12 10 0 21 4 24 9 11 18 -45 -2 -58 -21 -14 -19 -36 -17 -36 2
0 12 153 60 190 60 16 0 36 7 44 16 19 18 21 31 4 16 -7 -5 -40 -13 -73 -17
-33 -4 -80 -14 -103 -22 -24 -8 -45 -13 -47 -11 -1 2 1 13 6 26 8 22 14 23 71
20 l63 -3 3 33 c2 17 6 32 10 32 4 1 30 7 57 15 49 15 47 15 -70 9 -111 -5
-213 -17 -259 -31 -27 -8 -12 13 35 47 22 16 36 31 32 33 -4 3 -58 8 -118 12
l-110 7 -30 -88 c-24 -72 -30 -106 -30 -176 0 -49 -3 -88 -7 -88 -4 0 -24 20
-44 45 -38 45 -54 53 -35 17 9 -17 5 -21 -34 -36 l-43 -17 0 -187 c1 -148 3
-168 8 -97 3 50 8 83 10 75 1 -8 6 3 9 25 7 44 27 59 98 71 l41 6 -9 -38 c-23
-87 -23 -82 4 -77 22 4 27 0 36 -33 6 -22 11 -47 11 -56 0 -10 6 -18 13 -19
20 -2 61 3 70 8 11 7 -12 43 -26 40 -7 -1 -13 10 -15 26 -3 26 -1 27 40 28 90
3 118 -6 118 -34 0 -17 -10 -28 -35 -40 -23 -11 -35 -24 -35 -37 0 -11 -12
-26 -29 -35 -16 -8 -39 -28 -51 -45 -12 -16 -25 -30 -28 -30 -4 0 -22 25 -41
56 -24 41 -44 61 -76 76 -24 12 -42 24 -40 28 2 4 -6 6 -17 6 -15 -1 -24 7
-29 24 l-8 25 2 -25 c2 -18 17 -32 65 -60 52 -29 68 -45 97 -95 19 -33 35 -68
35 -78 0 -10 4 -16 8 -13 4 2 9 -7 10 -21 2 -25 0 -24 -51 18 -28 25 -64 51
-79 58 -16 8 -28 18 -28 23 0 11 -37 10 -45 -1 -3 -5 15 -31 41 -57 46 -48 77
-93 55 -80 -6 4 -11 3 -11 -2 0 -5 -9 -12 -19 -15 -14 -3 -19 -12 -17 -31 3
-23 -1 -28 -25 -33 -41 -8 -59 -42 -58 -110 1 -48 2 -53 9 -27 10 44 48 94 70
94 11 0 23 6 27 13 4 7 21 23 38 36 26 20 37 22 85 16 65 -9 91 -12 107 -14 7
0 -7 -20 -30 -43 -45 -45 -87 -137 -87 -189 0 -16 -3 -29 -7 -29 -15 1 -51 37
-56 56 -4 16 -5 16 -6 2 -1 -21 -17 -24 -24 -5 -2 7 -20 12 -43 12 -38 0 -39
1 -38 35 l2 35 -17 -38 c-9 -21 -20 -35 -24 -31 -4 4 -7 -68 -7 -160 l0 -167
23 11 22 11 -23 -20 c-20 -18 -22 -27 -21 -120 l1 -100 35 37 c20 20 41 52 48
71 12 36 51 59 80 47 22 -8 42 -66 38 -111 -3 -40 -3 -40 12 10 17 61 17 57 7
51 -5 -3 -6 8 -4 25 4 26 32 43 32 20 0 -5 20 -19 44 -31 35 -18 47 -20 65
-11 17 10 22 9 27 -4 3 -8 9 -13 13 -11 15 10 85 -40 91 -64 5 -22 7 -23 13
-7 4 10 7 26 7 36 0 25 48 67 100 87 25 9 48 20 53 24 4 3 21 5 37 2 26 -4 28
-7 20 -28 -12 -30 1 -31 19 -3 9 15 15 18 20 10 6 -9 15 -9 37 -1 24 9 31 8
41 -6 11 -15 17 -15 38 -6 15 7 24 16 21 21 -3 4 6 7 19 5 27 -2 32 5 14 23
-8 8 -4 15 13 27 22 16 23 16 26 -4 5 -27 25 -25 59 6 25 23 26 24 4 14 -28
-14 -77 5 -62 24 20 26 19 42 -3 42 -18 -1 -21 5 -24 47 -2 26 -7 47 -13 47
-5 0 -9 5 -9 11 0 5 5 7 10 4 15 -10 12 12 -5 28 -16 16 -12 64 9 102 5 11 9
23 8 27 -1 4 5 5 14 1 8 -3 13 -8 10 -11 -8 -8 14 -43 23 -37 5 3 11 -2 15
-10 8 -21 -6 -19 -32 6 l-23 20 7 -27 c4 -15 3 -25 -2 -21 -15 9 -3 -96 12
-114 8 -9 11 -18 8 -22 -4 -3 1 -13 10 -22 9 -9 16 -12 16 -5 0 6 9 10 20 8
14 -2 25 5 33 21 16 33 33 37 47 11 13 -25 6 -38 -12 -22 -10 7 -23 1 -52 -24
-26 -23 -34 -34 -23 -34 10 0 17 -5 17 -11 0 -7 26 -9 75 -7 41 2 75 0 75 -4
0 -5 11 -8 25 -8 30 0 72 -37 57 -52 -6 -6 -17 -6 -32 2 -20 11 -21 10 -12 -6
8 -14 5 -21 -16 -31 -14 -7 -34 -11 -44 -7 -10 3 -25 0 -33 -6 -18 -15 -20
-56 -2 -67 18 -12 137 -10 137 2 0 6 9 16 21 23 24 15 13 36 -24 45 l-22 6 23
-16 c12 -8 22 -19 22 -24 0 -15 -37 -10 -43 6 -4 8 -15 12 -28 10 -21 -4 -22
-3 -7 12 12 12 39 17 97 19 44 1 84 5 89 8 5 3 7 -5 5 -18 -7 -36 28 -52 62
-30 18 12 25 13 25 4 0 -9 6 -7 20 5 10 9 26 15 35 12 10 -4 15 -1 15 11 0 13
2 14 9 4 10 -16 186 -24 214 -10 21 11 22 28 2 28 -8 0 -15 4 -15 8 0 5 19 9
43 8 23 0 55 6 72 14 25 13 30 21 31 58 1 41 0 42 -30 42 l-31 1 29 15 28 16
-5 206 -6 207 -23 -3 c-49 -8 -53 -7 -56 16 -2 13 0 31 4 40 4 9 6 20 6 24 -1
4 6 7 16 6 32 -2 52 2 52 12 0 6 -13 10 -30 10 -28 0 -30 2 -30 40 0 31 3 38
16 33 9 -3 14 -15 12 -29 -2 -13 2 -23 7 -24 6 0 12 12 13 27 2 15 9 31 15 35
8 5 4 8 -9 8 -15 0 -20 6 -19 23 1 12 9 23 18 25 25 5 21 22 -5 23 -22 1 -22
1 2 9 21 7 22 8 5 10 l-20 1 20 9 c13 6 -7 9 -62 9 -56 1 -83 -3 -83 -10 0 -8
16 -10 50 -5 39 5 50 4 50 -7 0 -10 -15 -14 -50 -16 -45 -1 -50 1 -56 24 -3
14 -3 32 0 41 4 11 -1 22 -14 31 -12 9 -20 25 -20 44 l0 29 70 0 c68 0 70 -1
70 -25 0 -20 4 -24 23 -21 12 3 25 5 30 5 8 1 10 41 1 41 -3 0 -14 -5 -25 -10
-12 -7 -19 -7 -19 -1 0 5 9 12 19 16 25 8 34 51 10 51 -10 0 -15 -6 -11 -15 3
-9 1 -12 -6 -7 -7 4 -12 2 -12 -5 0 -7 -8 -5 -20 6 -12 10 -18 25 -16 32 3 7
-3 17 -12 23 -14 9 -12 11 11 7 15 -2 27 -1 27 3 0 4 -25 11 -56 15 -51 6 -55
9 -50 28 3 12 6 25 6 30 0 4 9 7 19 7 12 0 21 -9 25 -25 10 -40 32 -30 27 13
-3 23 17 12 23 -14 4 -15 10 -24 13 -21 13 13 -57 160 -122 255 -14 20 -25 40
-25 44 0 5 19 8 43 8 39 0 44 -3 71 -45 15 -25 31 -44 33 -41 3 3 -10 26 -28
51 l-33 46 -67 -3 c-37 -1 -66 -5 -63 -9 9 -14 -29 -19 -40 -5 -14 19 -101 56
-131 56 -28 0 -77 -44 -70 -63 7 -19 -36 -33 -78 -26 -21 3 -52 16 -70 28 -32
22 -32 22 3 -10 l35 -32 -34 19 c-18 11 -35 25 -38 32 -8 18 -22 15 -59 -13
-26 -20 -39 -23 -66 -19 -18 4 -38 11 -44 16 -7 5 -18 7 -25 6 -19 -4 -23 38
-5 45 9 4 16 2 16 -3 0 -21 33 -41 58 -35 16 4 28 1 34 -7 6 -10 13 -7 29 12
l21 25 -23 3 c-70 7 -139 26 -130 35 6 6 22 5 46 -3 20 -7 48 -10 61 -7 13 2
27 0 30 -4 9 -15 61 -10 74 6 7 8 18 15 24 15 6 0 19 6 28 13 15 12 15 16 -8
44 -17 22 -30 30 -44 26 -19 -5 -19 -6 -3 -18 10 -7 20 -12 23 -10 3 2 7 -6 7
-17 2 -17 -3 -19 -32 -16 -18 2 -31 0 -29 -4 11 -18 -8 -29 -24 -15 -35 30
-70 29 -40 -1 7 -7 8 -12 2 -12 -6 0 -21 12 -35 26 -18 20 -30 24 -52 20 -20
-4 -26 -2 -22 7 4 6 -3 0 -15 -15 -26 -33 -40 -36 -40 -7 0 11 4 18 9 14 6 -3
15 4 21 15 10 19 7 24 -13 21 -5 -1 -6 3 -2 8 3 6 12 8 20 5 12 -5 14 1 9 27
-11 67 -26 91 -68 110 -25 11 -43 14 -47 8 -5 -9 -39 -2 -49 11 -3 4 -17 3
-32 -1z m-27 -185 c11 -14 10 -15 -11 -12 -13 1 -25 9 -28 16 -5 17 23 15 39
-4z m33 -6 c-15 -24 -15 -48 0 -42 8 3 12 13 9 22 -4 15 -3 15 6 2 9 -12 11
-11 11 7 0 18 5 22 25 21 31 -3 33 -24 3 -34 -13 -3 -31 -13 -41 -22 -16 -14
-19 -14 -35 3 -16 18 -16 20 3 41 21 24 33 25 19 2z m93 -20 c-3 -8 -6 -5 -6
6 -1 11 2 17 5 13 3 -3 4 -12 1 -19z m10 -35 c-9 -9 -20 -12 -28 -8 -9 6 -6
11 9 16 12 5 23 16 23 26 1 16 2 16 6 -1 3 -10 -2 -25 -10 -33z m-539 4 c7 0
-5 -19 -26 -41 -42 -43 -62 -76 -62 -98 1 -7 7 -1 15 13 17 31 27 36 96 45
l50 7 -6 -70 c-6 -60 -4 -75 14 -111 l21 -42 -59 0 -58 0 -7 49 -6 49 -97 -34
c-65 -24 -99 -32 -106 -25 -12 12 2 101 34 204 l20 68 82 -7 c45 -4 88 -7 95
-7z m562 -48 c0 -17 -4 -28 -10 -24 -5 3 -10 17 -10 31 0 13 5 24 10 24 6 0
10 -14 10 -31z m550 11 c0 -5 -7 -7 -15 -4 -8 4 -15 8 -15 10 0 2 7 4 15 4 8
0 15 -4 15 -10z m-599 -17 c13 -16 12 -17 -3 -4 -10 7 -18 15 -18 17 0 8 8 3
21 -13z m669 -46 c11 -18 20 -39 20 -48 0 -16 -39 -39 -66 -39 -12 0 -13 -4
-3 -22 9 -17 9 -24 -5 -33 -8 -7 -12 -16 -8 -21 4 -5 -6 2 -21 16 -19 16 -26
19 -22 8 4 -9 2 -19 -4 -23 -6 -3 -11 0 -11 8 0 8 -9 17 -20 20 -11 3 -24 16
-29 29 -7 18 -5 27 12 40 30 24 33 23 53 -22 10 -22 24 -40 31 -40 16 0 17 26
2 36 -8 4 -7 9 2 15 9 5 14 28 14 68 -1 55 1 59 18 50 10 -6 27 -25 37 -42z
m-952 13 c-2 -30 -2 -30 -65 -30 -64 0 -72 5 -53 39 7 13 23 18 65 20 l55 2
-2 -31z m601 -33 c6 -8 25 -20 41 -27 17 -7 30 -18 30 -25 0 -8 8 -15 18 -18
9 -2 -1 -7 -23 -11 -22 -4 -53 -12 -69 -17 -43 -14 -94 -11 -132 7 -34 17 -38
29 -19 77 5 12 2 17 -10 17 -9 0 -13 -4 -10 -10 3 -6 -1 -7 -9 -4 -18 7 -21
20 -7 29 16 9 62 -17 57 -32 -3 -8 5 -18 20 -25 21 -10 27 -9 35 3 7 11 9 11
9 -3 0 -13 7 -17 26 -16 23 2 24 3 7 16 -10 8 -31 19 -47 24 l-29 11 34 18
c35 18 54 14 78 -14z m466 3 c3 -6 -1 -7 -9 -4 -18 7 -21 14 -7 14 6 0 13 -4
16 -10z m-370 -18 c-3 -3 -11 0 -18 7 -9 10 -8 11 6 5 10 -3 15 -9 12 -12z
m-470 -22 c3 -5 2 -10 -4 -10 -5 0 -13 5 -16 10 -3 6 -2 10 4 10 5 0 13 -4 16
-10z m823 -40 c4 -23 4 -23 -31 6 -45 37 -46 48 -4 31 21 -9 33 -21 35 -37z
m108 -63 c14 -27 24 -51 21 -54 -3 -3 -19 -2 -35 2 -24 5 -35 17 -56 61 -31
65 -31 71 -8 77 20 4 41 -19 78 -86z m-173 69 c3 -8 4 -27 1 -42 -7 -36 -7
-35 -5 -68 l1 -29 25 23 c36 34 39 20 5 -26 -16 -21 -30 -42 -30 -46 0 -14 23
-9 42 9 26 23 22 11 -6 -22 -13 -16 -27 -43 -31 -62 -3 -18 -10 -33 -15 -33
-5 0 -7 -6 -4 -13 2 -7 -4 -23 -14 -35 -19 -21 -39 -31 -28 -13 8 13 -20 21
-31 10 -6 -6 -16 -2 -27 10 -17 18 -16 21 23 72 38 50 51 77 34 66 -5 -3 -9
14 -10 37 -2 40 -2 40 12 16 14 -24 14 -24 15 -3 0 12 -5 34 -10 49 -8 20 -7
37 6 70 17 44 37 57 47 30z m-302 -40 c-32 -38 -205 -79 -255 -60 -27 10 -18
24 12 19 23 -5 73 6 207 44 44 13 49 12 36 -3z m349 4 c8 -5 11 -10 5 -10 -5
0 -17 5 -25 10 -8 5 -10 10 -5 10 6 0 17 -5 25 -10z m-1350 -51 c0 -45 0 -45
-78 -12 -40 16 -39 17 13 36 62 23 65 21 65 -24z m293 23 c16 -17 15 -21 -20
-63 -72 -85 -78 -90 -97 -83 -15 6 -16 8 -4 15 8 5 34 33 58 64 35 46 40 58
30 70 -19 23 13 20 33 -3z m402 8 c-3 -6 1 -7 9 -4 11 4 16 0 16 -15 0 -13 -5
-19 -14 -15 -8 3 -17 1 -21 -5 -3 -6 -1 -11 6 -11 8 0 8 -4 -1 -15 -7 -8 -20
-15 -28 -15 -9 0 -33 -16 -53 -36 -31 -30 -40 -34 -57 -25 -17 9 -24 7 -41
-17 -19 -25 -20 -25 -14 -4 3 13 21 35 41 50 19 15 51 41 70 57 23 19 34 24
30 13 -4 -9 -1 -19 7 -22 12 -4 26 17 31 49 1 6 2 13 3 18 0 4 6 7 12 7 5 0 7
-4 4 -10z m-625 -95 c12 -52 20 -101 18 -109 -2 -10 -23 -5 -87 25 -46 22 -86
38 -87 36 -2 -2 -7 -18 -10 -35 l-6 -32 46 0 c46 0 46 0 46 -35 l0 -35 -75 0
c-41 0 -75 3 -75 8 1 4 7 34 15 67 8 32 12 61 9 64 -2 2 -33 6 -69 7 -74 4
-81 6 -88 33 -4 16 4 23 35 36 l40 16 39 -36 c49 -44 60 -45 48 -3 -16 57 -13
59 60 28 39 -17 75 -30 80 -30 6 0 11 20 11 45 0 32 4 45 14 45 10 0 21 -30
36 -95z m163 49 c-15 -24 -17 -25 -24 -8 -12 30 -10 34 16 34 25 0 25 0 8 -26z
m721 5 c-12 -20 -89 -48 -150 -55 -32 -3 -63 -7 -68 -7 -6 -1 -12 6 -14 16 -3
14 1 17 20 12 21 -5 175 28 187 41 10 9 32 3 25 -7z m456 -3 c0 -8 -4 -18 -10
-21 -5 -3 -10 3 -10 14 0 12 5 21 10 21 6 0 10 -6 10 -14z m-750 -91 c0 -13 4
-14 21 -5 11 7 28 9 37 5 14 -6 13 -9 -8 -20 -34 -17 -131 -38 -155 -33 -16 3
-10 10 30 36 56 35 75 40 75 17z m546 -1 c-3 -9 -6 -22 -6 -30 0 -11 -11 -14
-40 -12 -42 2 -46 7 -30 39 14 25 86 28 76 3z m-1056 -24 c47 -24 56 -59 15
-61 -14 -1 -31 -2 -37 -3 -7 -1 -13 6 -13 14 0 10 8 14 25 12 23 -3 23 -2 -7
17 -18 12 -33 25 -33 31 0 14 5 13 50 -10z m100 11 c0 -13 -26 -32 -33 -24 -8
7 11 33 24 33 5 0 9 -4 9 -9z m30 -63 c0 -4 -8 -8 -17 -8 -14 0 -15 2 -4 9 9
6 10 11 2 15 -6 4 -11 13 -11 19 1 13 30 -22 30 -35z m510 12 c0 -15 7 -20 25
-20 16 0 25 -6 25 -15 0 -21 -47 -19 -59 3 -8 12 -10 13 -11 3 0 -8 -2 -12 -5
-9 -9 8 6 58 16 58 5 0 9 -9 9 -20z m370 8 c46 0 48 -5 19 -42 -16 -20 -18
-30 -10 -40 12 -15 5 -46 -11 -46 -6 0 -8 9 -5 20 3 10 -1 24 -8 30 -10 8 -14
4 -19 -15 -4 -14 -13 -25 -21 -25 -8 0 -15 -5 -15 -11 0 -5 5 -7 10 -4 14 9
12 -19 -2 -33 -9 -9 -8 -12 4 -12 9 0 20 9 23 20 3 11 13 20 21 20 17 0 19
-27 2 -32 -7 -3 -8 -10 -4 -17 6 -9 20 -11 43 -6 24 4 33 3 28 -5 -3 -5 -11
-8 -16 -5 -5 4 -9 -5 -9 -19 0 -24 -4 -26 -40 -26 -27 0 -43 5 -46 15 -4 8
-10 13 -15 10 -4 -3 -17 0 -28 7 -37 23 -46 -2 -45 -120 1 -59 -1 -95 -3 -79
-2 15 -9 27 -14 27 -5 0 -8 10 -6 23 2 12 2 17 0 11 -7 -20 -43 -24 -43 -6 -1
15 -3 14 -15 -2 -23 -30 -18 -11 11 45 15 27 25 52 22 54 -2 2 -22 -20 -43
-50 -22 -30 -41 -52 -43 -50 -8 8 39 84 66 107 16 14 33 36 36 49 6 21 3 19
-28 -13 -20 -21 -36 -33 -36 -26 0 15 -15 0 -15 -15 -1 -7 -7 -11 -14 -9 -7 1
-20 -3 -28 -10 -20 -16 -56 -22 -47 -6 4 7 3 8 -4 4 -6 -3 -16 2 -21 13 -6 10
-32 26 -58 35 -57 20 -76 20 -43 1 22 -13 23 -14 5 -15 -14 -1 -9 -6 15 -15
19 -7 28 -14 20 -15 -10 -1 -11 -3 -3 -6 7 -3 21 0 32 6 18 9 20 8 14 -7 -3
-10 -3 -15 2 -11 9 8 36 -23 29 -33 -2 -4 -13 -5 -24 -2 -11 3 -17 10 -13 16
4 7 -5 8 -27 3 -19 -3 -31 -3 -27 0 4 4 -18 16 -49 26 -31 10 -72 30 -92 43
-36 24 -37 26 -34 80 l4 55 33 0 c36 0 90 -37 100 -69 3 -11 18 -24 33 -30 45
-18 93 -30 87 -21 -2 4 20 11 50 15 31 3 53 10 50 15 -3 4 4 10 15 13 10 3 21
0 22 -5 4 -12 60 11 71 29 5 8 18 11 33 7 14 -4 24 -2 24 4 0 6 11 23 25 38
14 15 25 34 25 43 0 9 -3 12 -8 6 -4 -6 -19 -16 -33 -23 -20 -11 -25 -19 -21
-38 2 -14 0 -24 -7 -24 -6 0 -11 16 -11 36 0 31 4 37 35 50 29 12 35 19 35 45
0 18 4 28 10 24 6 -3 28 -7 50 -7z m261 -15 c-12 -20 -14 -14 -5 12 4 9 9 14
11 11 3 -2 0 -13 -6 -23z m-1181 1 c0 -8 -6 -11 -15 -8 -8 4 -15 9 -15 13 0 4
7 8 15 8 8 0 15 -6 15 -13z m765 -23 c-3 -12 -13 -21 -20 -21 -16 0 -9 30 9
42 15 10 19 3 11 -21z m-975 5 c0 -8 4 -18 10 -21 6 -3 7 1 4 9 -7 18 -3 19
20 10 9 -3 13 -11 9 -17 -3 -6 -1 -7 5 -3 6 4 20 -2 32 -14 l20 -20 -60 0 -60
0 0 35 c0 19 5 35 10 35 6 0 10 -6 10 -14z m436 -1 c19 -10 23 -15 12 -15 -16
0 -88 -83 -88 -101 0 -5 19 -10 43 -10 23 -1 34 -3 25 -6 -21 -5 -22 -16 -6
-46 10 -20 10 -21 -5 -9 -9 8 -19 22 -22 33 -4 10 -15 19 -26 19 -14 0 -19 -7
-19 -27 l-1 -28 -12 29 c-11 24 -20 30 -54 33 -48 4 -65 -18 -36 -48 41 -41
44 -48 33 -70 -9 -15 -15 -18 -25 -9 -10 8 -15 4 -23 -20 -13 -35 -37 -39 -48
-7 -5 12 -7 25 -6 30 2 9 -2 9 -22 1 -11 -4 -16 -19 -16 -44 0 -22 -4 -42 -10
-45 -5 -3 -10 -2 -10 4 0 6 -7 8 -15 5 -22 -9 -18 5 7 26 19 15 20 20 9 34 -8
10 -21 14 -32 11 -12 -4 -19 -1 -20 7 0 7 -5 0 -11 -17 -11 -29 -25 -45 -40
-45 -4 0 -5 7 -1 16 5 15 3 15 -20 -1 -37 -24 -59 -13 -54 27 3 30 7 33 48 41
24 4 54 6 67 4 12 -2 22 0 22 4 0 5 10 9 23 9 16 0 18 3 8 9 -11 7 -10 11 5
20 16 9 16 10 3 11 -9 0 -22 -7 -29 -15 -17 -21 -81 -17 -77 4 6 39 122 59
129 23 3 -14 5 -14 20 1 9 10 28 18 42 19 65 6 -5 28 -88 28 -35 0 -37 2 -25
17 10 11 10 14 2 9 -7 -4 -13 -2 -13 3 0 6 7 11 15 11 8 0 15 -7 15 -16 0 -8
4 -13 10 -9 5 3 7 12 3 20 -4 12 6 15 57 15 57 0 62 2 57 20 -3 11 -1 18 4 14
5 -3 9 -1 9 5 0 5 -6 12 -12 14 -7 3 -2 6 11 6 21 1 23 -2 17 -26 -17 -67 -15
-84 3 -33 10 29 27 60 37 67 24 18 95 16 130 -2z m-216 -17 c0 -6 -9 -8 -20
-5 -11 3 -18 2 -15 -3 5 -9 -18 -20 -42 -20 -8 0 -13 7 -11 17 5 28 88 38 88
11z m1143 7 c-3 -9 -8 -14 -10 -11 -3 3 -2 9 2 15 9 16 15 13 8 -4z m-73 -24
c-5 -11 -15 -23 -22 -27 -7 -5 -8 -2 -3 7 21 37 44 55 25 20z m-393 -7 c4 -11
-28 -19 -96 -26 -39 -5 -35 17 6 29 47 13 85 12 90 -3z m441 -34 c-1 -44 -1
-44 -28 -30 -13 7 -21 7 -26 -2 -4 -6 -3 -8 4 -4 6 3 13 2 16 -3 4 -5 -2 -8
-11 -6 -10 1 -24 -2 -30 -8 -7 -5 -13 -6 -13 -1 0 7 80 94 87 94 2 0 2 -18 1
-40z m-596 0 c-29 -24 -85 -35 -109 -21 -15 9 -13 11 17 11 19 1 49 7 65 15
43 19 54 17 27 -5z m465 -40 c-1 -11 -5 -20 -9 -20 -11 0 -20 19 -13 30 11 17
24 11 22 -10z m151 -22 c7 -7 12 -26 12 -42 0 -22 -3 -27 -9 -17 -5 8 -8 22
-6 32 3 14 -1 18 -15 16 -11 -2 -23 -6 -26 -10 -12 -12 -24 -8 -24 7 0 8 10
17 23 19 12 2 24 5 28 6 3 0 10 -4 17 -11z m-84 -70 c-3 -4 7 -9 23 -9 l28 -2
-27 -4 c-25 -4 -28 -8 -28 -43 0 -38 1 -39 38 -42 33 -3 37 -6 40 -32 4 -30
-10 -46 -40 -46 -23 0 -57 74 -51 114 2 17 -3 54 -11 81 l-15 50 24 -29 c13
-17 22 -33 19 -38z m35 20 c4 7 13 5 25 -4 19 -13 18 -14 -12 -14 -24 0 -32 4
-31 18 0 12 2 13 6 3 3 -8 8 -9 12 -3z m-830 -41 c-14 -10 -10 -15 28 -35 23
-12 43 -20 43 -17 0 2 -14 12 -31 21 -24 12 -29 18 -18 24 7 5 16 6 19 1 3 -4
16 -8 29 -8 13 -1 27 -6 30 -10 6 -8 24 -14 53 -16 10 -1 37 -17 60 -35 l43
-34 -35 8 c-19 4 -55 7 -80 6 -33 -2 -62 6 -110 30 -36 18 -67 34 -70 36 -6 4
39 42 49 42 3 0 -1 -6 -10 -13z m896 3 c-3 -5 1 -10 9 -10 8 0 18 5 21 10 3 6
17 10 31 10 19 0 24 -5 24 -25 0 -18 -4 -23 -15 -19 -8 4 -15 1 -15 -5 0 -7
-8 -7 -27 0 -20 7 -28 6 -35 -3 -9 -14 -9 -14 -12 25 -1 17 3 27 12 27 7 0 10
-4 7 -10z m-80 -19 c3 -5 1 -12 -5 -16 -5 -3 -10 1 -10 9 0 18 6 21 15 7z
m-989 -31 c9 0 12 -4 9 -10 -3 -5 1 -10 9 -10 9 0 16 -5 16 -12 0 -6 6 -3 14
8 20 27 37 8 43 -48 6 -53 -10 -88 -61 -137 -53 -51 -72 -50 -41 3 15 26 24
56 24 77 -1 26 -3 28 -6 10 -5 -24 -35 -75 -72 -121 -27 -33 -26 -21 1 27 22
38 22 38 1 20 -23 -20 -47 -66 -58 -109 -6 -25 -4 -27 32 -31 32 -3 30 -4 -15
-5 -32 -1 -51 -6 -47 -12 4 -6 -1 -7 -12 -3 -16 6 -17 5 -3 -13 14 -18 14 -18
-2 -5 -10 7 -15 18 -11 24 4 7 0 8 -13 3 -12 -5 -15 -4 -9 2 6 6 19 12 30 14
13 2 19 10 17 22 -2 11 1 15 7 11 7 -3 11 3 11 15 0 14 -4 19 -12 14 -7 -4 -2
6 10 23 12 17 22 36 22 41 0 5 16 24 35 41 38 33 43 52 20 71 -12 10 -19 10
-28 1 -9 -9 -9 -14 3 -21 12 -8 9 -16 -20 -47 -19 -21 -38 -42 -42 -47 -4 -5
-4 2 -1 15 9 37 -6 17 -28 -37 -17 -42 -19 -44 -14 -15 3 18 5 50 6 70 1 33 2
34 9 11 6 -20 8 -14 10 30 2 30 5 45 7 33 4 -22 4 -22 25 -3 12 11 25 17 29
14 5 -3 18 18 31 45 12 28 25 48 29 45 4 -2 11 1 15 8 6 9 9 9 12 0 2 -7 10
-12 18 -12z m49 10 c-3 -5 -11 -10 -16 -10 -6 0 -7 5 -4 10 3 6 11 10 16 10 6
0 7 -4 4 -10z m202 -74 c4 11 79 4 101 -10 24 -14 12 -28 -20 -22 -33 5 -33 5
2 -5 19 -6 60 -18 90 -27 l55 -17 -49 -3 c-39 -3 -62 4 -122 33 -40 20 -78 34
-84 30 -5 -3 -30 10 -55 31 -25 20 -48 35 -50 32 -8 -8 26 -49 36 -43 5 4 9 2
9 -3 0 -5 20 -20 44 -33 55 -29 53 -34 -3 -14 -23 8 -45 14 -49 12 -4 -1 -9 3
-11 8 -2 6 -12 16 -23 24 -11 7 -17 19 -14 27 3 8 0 14 -7 14 -8 0 -6 4 3 10
8 5 11 10 7 10 -5 0 -6 4 -2 9 3 6 35 -9 72 -32 37 -23 68 -37 70 -31z m552
44 c9 -14 11 -21 4 -17 -9 6 -11 3 -7 -7 3 -9 11 -13 17 -9 6 4 7 1 3 -6 -5
-7 -13 -10 -20 -8 -15 6 -13 -31 3 -61 12 -23 13 -23 32 -6 18 17 19 16 20
-32 0 -27 3 -43 6 -36 12 30 23 7 22 -45 -1 -78 -17 -117 -19 -48 -2 28 -2 54
-1 58 1 5 -7 20 -18 33 l-20 26 -7 -28 -7 -27 -20 38 c-13 26 -18 50 -14 76 3
24 0 45 -10 59 -16 23 -10 74 9 68 6 -2 18 -15 27 -28z m-292 -12 c-3 -8 -6
-5 -6 6 -1 11 2 17 5 13 3 -3 4 -12 1 -19z m-859 -36 c-16 -7 -7 -23 18 -34
l26 -12 -23 -8 c-14 -6 -25 -5 -29 2 -4 6 -13 10 -21 8 -9 -2 -15 8 -17 30 -5
54 3 66 30 39 13 -12 20 -23 16 -25z m1507 13 c0 -36 -1 -37 -35 -37 -51 0
-58 3 -64 29 -9 32 2 39 57 41 42 2 42 2 42 -33z m-1399 -24 c10 -17 21 -28
24 -26 4 2 7 -2 7 -10 0 -10 -11 -13 -36 -12 -29 2 -35 6 -33 21 2 10 -2 22
-9 26 -6 4 -8 13 -5 19 12 20 34 12 52 -18z m1003 -61 c0 -32 -3 -61 -8 -64
-13 -9 -42 29 -45 60 -5 43 7 66 15 29 7 -30 7 -30 8 -3 0 15 -4 30 -9 33 -8
5 -7 12 1 22 21 24 36 -8 38 -77z m-985 64 c3 -8 2 -12 -4 -9 -6 3 -10 10 -10
16 0 14 7 11 14 -7z m38 -29 c3 -13 1 -22 -3 -19 -9 5 -13 44 -5 44 2 0 6 -11
8 -25z m493 -35 c13 -5 14 -9 5 -9 -8 0 -24 4 -35 9 -13 5 -14 9 -5 9 8 0 24
-4 35 -9z m739 2 c3 -5 -1 -9 -9 -9 -8 0 -12 4 -9 9 3 4 7 8 9 8 2 0 6 -4 9
-8z m-1317 -8 c-3 -3 -12 -4 -19 -1 -8 3 -5 6 6 6 11 1 17 -2 13 -5z m1445
-86 c9 -5 6 -8 -9 -8 -18 0 -23 -6 -23 -25 0 -20 -5 -24 -22 -22 -18 2 -22 -3
-24 -30 -2 -40 -38 -101 -49 -82 -6 9 -12 0 -21 -27 l-12 -39 -1 33 c-1 18 5
45 13 61 16 31 46 59 46 43 0 -5 -7 -15 -15 -22 -21 -17 -19 -33 2 -21 12 6
18 22 19 50 0 22 -3 38 -6 36 -4 -2 -7 2 -7 10 0 11 3 12 14 3 10 -8 17 -8 25
0 8 8 7 13 -5 18 -9 3 -14 11 -10 18 4 6 -1 5 -10 -3 -16 -13 -25 -2 -10 13 9
9 89 5 105 -6z m-662 -44 c0 -30 -4 -35 -31 -41 -29 -6 -30 -7 -24 -44 4 -22
3 -39 -2 -39 -4 0 -18 -3 -30 -6 -21 -6 -23 -3 -23 35 0 24 4 40 9 36 5 -3 12
-1 16 5 3 5 -1 10 -9 10 -10 0 -16 9 -16 25 0 14 5 25 11 25 5 0 8 -4 4 -10
-3 -5 7 -7 26 -5 34 4 52 15 26 15 -16 0 -23 11 -13 21 2 2 16 5 30 5 23 2 26
-2 26 -32z m154 20 c21 -20 20 -27 -2 -20 -12 4 -26 -3 -40 -19 -12 -14 -28
-25 -36 -25 -8 0 -21 -3 -29 -6 -16 -6 -28 35 -20 67 4 16 15 19 58 19 35 0
59 -5 69 -16z m170 -11 c23 -121 18 -203 -14 -203 -32 0 -38 103 -13 208 7 30
20 28 27 -5z m-1008 -18 c-4 -14 -11 -23 -15 -20 -5 3 -12 -1 -14 -7 -3 -8 -6
-6 -6 5 -1 9 6 17 14 17 9 0 15 9 15 22 0 12 3 19 6 15 4 -3 3 -18 0 -32z
m454 14 c0 -5 -12 -14 -27 -20 -14 -5 -33 -17 -40 -27 -29 -35 -64 -140 -43
-127 11 7 12 -23 1 -70 -7 -28 -8 -29 -15 -8 -4 14 -12 20 -22 16 -10 -4 -14
3 -15 23 l-1 29 -7 -27 c-5 -24 -8 -25 -25 -13 -13 10 -17 21 -12 42 5 27 5
27 -6 5 -9 -18 -18 -23 -40 -20 -17 3 -28 0 -30 -9 -2 -8 -8 -9 -17 -4 -19 12
-6 41 19 41 12 0 20 7 20 18 0 28 45 115 72 140 23 21 32 23 102 18 56 -4 75
-3 70 6 -4 7 -3 8 4 4 7 -4 12 -12 12 -17z m147 15 c-3 -3 -12 -4 -19 -1 -8 3
-5 6 6 6 11 1 17 -2 13 -5z m623 -12 c0 -10 5 -23 12 -30 13 -13 -1 -16 -17
-4 -12 9 -16 52 -4 52 5 0 9 -8 9 -18z m-740 -2 c0 -5 -5 -10 -11 -10 -5 0 -7
5 -4 10 3 6 8 10 11 10 2 0 4 -4 4 -10z m17 -32 c-3 -7 -5 -2 -5 12 0 14 2 19
5 13 2 -7 2 -19 0 -25z m-381 10 c4 -7 4 -10 -1 -6 -4 4 -14 0 -22 -10 -13
-15 -13 -15 -3 6 12 25 16 27 26 10z m734 -58 c0 -16 -62 -23 -71 -9 -14 23
-10 37 11 44 11 4 18 12 14 18 -3 7 6 -1 20 -16 14 -15 26 -32 26 -37z m526
28 l19 -23 -22 18 c-19 17 -26 17 -58 7 -38 -12 -60 -6 -35 10 28 18 76 11 96
-12z m-656 -42 c0 -19 -51 -31 -61 -14 -26 40 10 79 42 47 11 -11 19 -25 19
-33z m175 43 c11 -17 0 -20 -21 -4 -17 13 -17 14 -2 15 9 0 20 -5 23 -11z
m-961 -24 c-25 -19 -38 -19 -22 0 7 8 19 14 27 15 11 0 9 -4 -5 -15z m1202
-11 c-3 -9 -6 -18 -6 -20 0 -2 -9 -4 -20 -4 -25 0 -27 27 -2 33 31 8 34 7 28
-9z m-686 -3 c0 -6 -5 -13 -11 -17 -6 -3 -19 -27 -30 -52 -21 -49 -35 -51 -24
-3 10 47 65 107 65 72z m-390 -7 c0 -8 -19 -13 -24 -6 -3 5 1 9 9 9 8 0 15 -2
15 -3z m-124 -18 c10 -8 16 -18 12 -21 -10 -11 -40 3 -33 15 3 6 -1 7 -9 4 -9
-3 -16 -1 -16 5 0 15 22 14 46 -3z m977 -15 c6 -22 -21 -33 -47 -19 -27 15
-19 38 13 38 20 0 30 -6 34 -19z m-1047 -6 c-4 -10 1 -15 14 -15 11 0 20 -5
20 -11 0 -5 6 -7 13 -3 7 5 7 1 -2 -10 -13 -15 -13 -19 0 -27 11 -7 10 -9 -5
-9 -13 0 -17 5 -13 20 3 14 1 18 -6 13 -21 -13 -37 -12 -37 2 0 8 -9 17 -21
20 -16 5 -18 10 -8 21 16 19 53 19 45 -1z m1245 -18 c-5 -14 -15 -28 -20 -32
-10 -6 0 33 15 57 11 18 14 1 5 -25z m256 11 c14 -32 6 -48 -25 -48 -26 1 -26
1 -8 15 11 8 15 15 8 15 -6 0 -19 -11 -28 -25 -16 -24 -16 -27 1 -39 10 -7 28
-11 39 -8 17 4 19 2 9 -8 -7 -8 -19 -10 -30 -5 -10 5 -24 7 -31 6 -7 -1 -11 4
-10 11 2 7 -3 12 -9 11 -7 -2 -13 4 -13 13 0 8 5 12 10 9 6 -3 10 -2 10 4 0 5
-6 11 -12 13 -9 3 -8 12 5 31 23 35 69 37 84 5z m-1265 -15 c-2 -13 1 -23 7
-23 6 0 11 -4 11 -10 0 -5 -9 -10 -19 -10 -16 0 -19 6 -18 33 1 19 7 34 13 34
6 0 9 -11 6 -24z m-103 -5 c-9 -16 -9 -23 0 -26 21 -7 11 -22 -14 -22 -29 0
-31 11 -9 45 20 31 39 33 23 3z m721 -8 c0 -35 -14 -39 -31 -9 -9 17 -8 23 2
30 23 15 29 10 29 -21z m88 -13 c4 -20 -25 -34 -40 -19 -15 15 -1 44 19 40 10
-2 19 -11 21 -21z m419 -9 c-3 -7 -5 -2 -5 12 0 14 2 19 5 13 2 -7 2 -19 0
-25z m-350 10 c-2 -7 -10 -12 -17 -10 -7 1 -18 -3 -26 -9 -15 -13 -17 -9 -8
15 3 9 17 16 31 16 15 0 23 -5 20 -12z m-831 -18 c8 0 14 -4 14 -10 0 -5 -9
-10 -20 -10 -14 0 -20 6 -19 23 0 12 3 16 6 10 2 -7 11 -13 19 -13z m449 -8
c-14 -10 -19 -66 -6 -57 7 3 8 0 5 -9 -10 -25 -24 -8 -24 29 0 47 10 69 24 55
7 -7 7 -13 1 -18z m-748 -14 c-3 -7 -5 -2 -5 12 0 14 2 19 5 13 2 -7 2 -19 0
-25z m1170 10 c-3 -8 -6 -5 -6 6 -1 11 2 17 5 13 3 -3 4 -12 1 -19z m-295 -7
c4 -1 5 -8 2 -16 -5 -12 -17 -14 -58 -9 -58 8 -60 9 -51 23 5 9 24 9 107 2z
m348 0 c0 -4 25 -7 55 -6 30 1 55 -2 55 -6 0 -14 -129 -7 -134 8 -3 7 1 13 9
13 8 0 15 -4 15 -9z m-263 -19 c-17 -19 -57 -27 -57 -11 0 10 35 27 59 28 11
1 11 -3 -2 -17z m152 9 c9 -6 1 -10 -25 -13 -44 -6 -63 0 -43 13 18 11 50 11
68 0z m256 -1 c-3 -5 -10 -10 -16 -10 -5 0 -9 5 -9 10 0 6 7 10 16 10 8 0 12
-4 9 -10z m-955 -49 c-14 -27 -53 -47 -110 -56 l-45 -7 19 21 c17 18 17 21 3
15 -9 -3 -17 -2 -17 4 0 6 13 8 31 5 21 -3 29 -1 24 6 -6 10 20 16 52 12 7 -1
20 11 30 26 14 21 19 23 21 11 2 -10 -2 -26 -8 -37z m-390 19 c0 -8 8 -32 19
-52 l18 -37 -23 16 c-13 8 -24 13 -24 10 0 -12 43 -46 51 -41 5 3 6 -2 3 -10
-14 -36 -61 26 -70 92 -4 31 -2 39 10 39 9 0 16 -8 16 -17z m1172 -2 c-7 -7
-12 -19 -12 -27 0 -12 5 -10 18 7 23 29 83 40 101 18 12 -14 9 -16 -25 -16
-28 0 -35 -3 -24 -9 8 -6 28 -7 45 -4 26 6 28 4 18 -9 -7 -8 -9 -18 -5 -23 4
-4 -3 -2 -16 4 -18 10 -30 8 -67 -8 -25 -11 -45 -16 -45 -12 0 5 17 16 38 24
29 13 32 16 14 16 -13 1 -32 -4 -43 -9 -17 -9 -19 -7 -19 19 0 25 8 37 30 40
2 1 -1 -4 -8 -11z m-212 -5 c-1 -28 -14 -51 -26 -46 -8 3 -11 9 -8 14 3 5 -2
6 -10 3 -25 -10 -19 12 7 24 27 13 37 14 37 5z m170 -3 c0 -5 -15 -10 -32 -9
-31 1 -32 1 -8 9 35 11 40 11 40 0z m-112 -11 c-2 -6 -7 -10 -11 -10 -4 1 -14
1 -22 1 -8 0 -15 5 -15 10 0 6 12 10 26 10 14 0 24 -5 22 -11z m-853 -19 c-3
-5 -12 -10 -19 -10 -8 0 -13 -8 -12 -17 0 -9 -10 -23 -24 -30 -14 -7 -20 -13
-15 -13 6 0 3 -4 -5 -9 -8 -6 -18 -7 -23 -4 -10 6 78 93 94 93 5 0 7 -4 4 -10z
m50 0 c-3 -5 -14 -10 -23 -9 -14 0 -13 2 3 9 27 11 27 11 20 0z m912 4 c-3 -3
-12 -4 -19 -1 -8 3 -5 6 6 6 11 1 17 -2 13 -5z m-175 -39 c21 -14 59 -30 86
-36 l49 -12 -23 -24 c-21 -23 -27 -24 -55 -14 -18 6 -42 11 -55 11 -13 0 -29
9 -38 21 -10 14 -20 19 -34 15 -30 -10 -35 8 -11 38 25 32 35 32 81 1z m-737
5 c3 -5 -3 -10 -14 -10 -11 0 -23 5 -26 10 -3 6 3 10 14 10 11 0 23 -4 26 -10z
m1068 -15 c32 -13 18 -20 -42 -20 -55 0 -58 1 -43 16 17 16 52 18 85 4z m171
-1 c25 -10 19 -21 -15 -28 -37 -7 -80 11 -58 25 16 10 51 12 73 3z m-290 -23
c3 -5 -1 -11 -9 -14 -9 -4 -12 -1 -8 9 6 16 10 17 17 5z m121 -11 c3 -5 1 -10
-6 -10 -9 0 -9 -4 1 -15 6 -8 9 -19 5 -25 -9 -14 5 -12 35 5 14 8 28 14 33 15
15 0 6 -22 -15 -42 l-23 -20 22 5 c30 7 50 -17 33 -38 -24 -29 -85 -7 -65 24
2 5 -9 8 -24 7 -16 -1 -27 -5 -24 -10 3 -5 -11 -7 -31 -4 -34 4 -37 2 -32 -17
7 -29 -2 -37 -25 -22 -20 13 -26 37 -9 37 6 0 5 6 -2 14 -7 8 -16 12 -20 9 -5
-2 -8 3 -8 11 0 9 4 16 10 16 5 0 7 6 5 13 -8 20 55 57 97 57 20 0 40 -4 43
-10z m225 -14 c0 -9 -9 -14 -20 -13 -20 1 -25 9 -13 20 12 12 33 7 33 -7z
m-1695 -6 c-3 -5 -16 -10 -28 -9 -21 0 -21 1 -2 9 28 12 37 12 30 0z m583 -5
c-2 -3 -25 -9 -49 -14 -24 -5 -53 -12 -63 -16 -14 -6 -17 -5 -12 3 4 6 21 16
39 21 35 10 93 14 85 6z m1212 -9 c0 -2 -8 -10 -17 -17 -16 -13 -17 -12 -4 4
13 16 21 21 21 13z m-1435 -26 c17 -4 22 -8 13 -9 -12 -1 -15 -6 -11 -17 5
-14 1 -16 -20 -12 -15 3 -25 2 -23 -1 7 -12 -14 -52 -24 -46 -6 3 -23 0 -40
-8 -33 -17 -40 -13 -40 19 0 27 65 85 95 83 11 -1 34 -5 50 -9z m1284 -4 c24
-13 24 -14 3 -25 -28 -15 -32 -14 -67 14 l-30 25 35 0 c19 -1 46 -7 59 -14z
m-1127 -45 c-36 -32 -40 -40 -25 -43 10 -2 -11 -3 -47 -2 -36 1 -73 5 -82 9
-21 8 -13 31 14 38 13 4 17 10 12 18 -5 8 -3 10 5 4 9 -5 10 -10 2 -18 -20
-20 -12 -32 23 -34 25 -2 44 6 77 32 60 46 74 44 21 -4z m263 29 c7 -12 -2
-12 -30 0 -19 8 -19 9 2 9 12 1 25 -3 28 -9z m-110 -30 c4 -6 -6 -10 -24 -10
-16 0 -33 5 -36 10 -4 6 6 10 24 10 16 0 33 -4 36 -10z m-465 -26 c0 -8 -5
-12 -10 -9 -6 4 -8 11 -5 16 9 14 15 11 15 -7z m1424 7 c3 -5 -5 -8 -19 -8
-14 0 -22 3 -19 8 3 5 11 9 19 9 8 0 16 -4 19 -9z m-1499 -21 c3 -5 2 -10 -4
-10 -5 0 -13 5 -16 10 -3 6 -2 10 4 10 5 0 13 -4 16 -10z m245 -30 c16 -7 37
-9 47 -6 16 6 15 5 -1 -13 -18 -20 -46 -18 -95 8 -18 10 -20 15 -10 33 10 18
13 19 20 6 5 -8 22 -21 39 -28z m-370 26 c0 -2 -8 -10 -17 -17 -16 -13 -17
-12 -4 4 13 16 21 21 21 13z"/>
<path d="M1584 1419 c-19 -22 -19 -22 4 -8 12 8 22 17 22 21 0 12 -6 9 -26
-13z"/>
<path d="M1571 1316 c-7 -8 -8 -17 -3 -20 6 -3 15 1 21 8 7 8 8 17 3 20 -6 3
-15 -1 -21 -8z"/>
<path d="M1203 1167 c-18 -12 -33 -28 -33 -36 0 -10 11 -5 33 15 17 16 36 32
42 36 21 18 -12 5 -42 -15z"/>
<path d="M1142 1140 c0 -14 2 -19 5 -12 2 6 2 18 0 25 -3 6 -5 1 -5 -13z"/>
<path d="M998 1113 c7 -3 16 -2 19 1 4 3 -2 6 -13 5 -11 0 -14 -3 -6 -6z"/>
<path d="M663 1267 c-9 -29 -8 -33 9 -33 13 0 18 8 18 28 0 39 -15 42 -27 5z"/>
<path d="M577 1173 c-4 -3 -7 -16 -7 -29 0 -17 5 -22 23 -20 17 1 23 6 19 18
-5 22 -27 40 -35 31z"/>
<path d="M498 1323 c7 -3 16 -2 19 1 4 3 -2 6 -13 5 -11 0 -14 -3 -6 -6z"/>
<path d="M1665 1279 c-4 -6 -5 -12 -2 -15 2 -3 7 2 10 11 7 17 1 20 -8 4z"/>
<path d="M940 1050 c18 -12 30 -13 30 -2 0 4 -10 9 -22 9 -18 2 -20 0 -8 -7z"/>
<path d="M630 1062 c0 -6 -7 -18 -16 -26 -8 -9 -14 -24 -11 -34 3 -12 9 -6 21
22 9 21 15 41 12 44 -3 3 -6 0 -6 -6z"/>
<path d="M700 1030 c-7 -44 -4 -90 4 -91 6 0 2 -4 -9 -9 -11 -5 -14 -9 -7 -9
8 -1 0 -14 -17 -32 -17 -17 -31 -36 -31 -42 0 -18 68 53 85 89 12 25 13 42 6
66 -5 18 -10 26 -10 18 -1 -13 -2 -13 -11 0 -5 8 -10 13 -10 10z"/>
<path d="M1424 1059 c-3 -6 -2 -15 3 -20 5 -5 9 -1 9 11 0 23 -2 24 -12 9z"/>
<path d="M1386 917 c3 -10 9 -15 12 -12 3 3 0 11 -7 18 -10 9 -11 8 -5 -6z"/>
<path d="M580 520 c-9 -6 -10 -10 -3 -10 6 0 15 5 18 10 8 12 4 12 -15 0z"/>
<path d="M1183 447 c-4 -6 -1 -7 7 -2 10 6 12 4 6 -10 -5 -15 -4 -16 9 -5 8 7
15 16 15 20 0 10 -30 8 -37 -3z"/>
<path d="M1438 363 c7 -3 16 -2 19 1 4 3 -2 6 -13 5 -11 0 -14 -3 -6 -6z"/>
<path d="M1508 363 c7 -3 16 -2 19 1 4 3 -2 6 -13 5 -11 0 -14 -3 -6 -6z"/>
<path d="M1600 310 c-13 -8 -12 -10 3 -10 9 0 17 5 17 10 0 12 -1 12 -20 0z"/>
<path d="M1387 1895 c-4 -8 -2 -17 4 -20 5 -4 7 -11 3 -16 -3 -5 -10 -6 -16
-3 -7 4 -8 2 -4 -4 5 -8 13 -8 31 0 19 8 32 8 53 -1 25 -10 24 -8 -10 24 -41
38 -53 42 -61 20z"/>
<path d="M1883 1550 c0 -25 2 -35 4 -22 2 12 2 32 0 45 -2 12 -4 2 -4 -23z"/>
<path d="M718 1561 c-10 -13 -10 -14 1 -5 19 17 46 6 58 -24 l11 -27 1 27 c2
41 -47 61 -71 29z"/>
<path d="M686 1523 c-6 -14 -5 -15 5 -6 7 7 10 15 7 18 -3 3 -9 -2 -12 -12z"/>
<path d="M666 1483 c-6 -14 -5 -15 5 -6 7 7 10 15 7 18 -3 3 -9 -2 -12 -12z"/>
<path d="M316 1253 c8 -8 18 -12 23 -8 5 3 12 1 15 -4 4 -5 -2 -12 -11 -14
-14 -4 -13 -5 5 -6 12 0 22 3 22 8 0 5 3 16 6 25 5 13 -1 16 -34 14 -35 -1
-38 -3 -26 -15z"/>
<path d="M386 1245 c-3 -8 -1 -15 4 -15 6 0 10 7 10 15 0 8 -2 15 -4 15 -2 0
-6 -7 -10 -15z"/>
<path d="M22 1180 c0 -14 2 -19 5 -12 2 6 2 18 0 25 -3 6 -5 1 -5 -13z"/>
<path d="M1885 1100 c3 -5 8 -10 11 -10 2 0 4 5 4 10 0 6 -5 10 -11 10 -5 0
-7 -4 -4 -10z"/>
<path d="M234 828 l-29 -33 33 29 c30 28 37 36 29 36 -2 0 -16 -15 -33 -32z"/>
<path d="M93 715 c-3 -9 -3 -18 -1 -21 3 -3 8 4 11 16 6 23 -1 27 -10 5z"/>
<path d="M161 704 c0 -11 3 -14 6 -6 3 7 2 16 -1 19 -3 4 -6 -2 -5 -13z"/>
<path d="M1128 338 c-32 -26 -41 -30 -60 -21 -19 9 -27 6 -50 -17 l-26 -27 51
8 c51 8 126 51 135 77 6 20 -10 13 -50 -20z"/>
<path d="M1856 315 c-4 -11 -12 -14 -27 -10 -15 5 -19 4 -15 -4 9 -13 36 -14
56 -1 11 7 12 12 4 20 -8 8 -13 7 -18 -5z"/>
<path d="M1346 261 c-4 -6 -2 -11 3 -11 6 0 11 -5 11 -11 0 -7 -10 -9 -25 -7
-17 4 -25 1 -25 -8 0 -16 47 -19 70 -4 13 8 12 12 -6 31 -14 14 -24 17 -28 10z"/>
<path d="M1931 254 c0 -11 3 -14 6 -6 3 7 2 16 -1 19 -3 4 -6 -2 -5 -13z"/>
<path d="M738 233 c-34 -17 -37 -43 -5 -43 28 0 47 17 47 42 0 21 -5 21 -42 1z"/>
<path d="M635 221 c-3 -5 -1 -12 5 -16 13 -8 50 3 50 16 0 12 -47 12 -55 0z"/>
<path d="M240 206 c0 -9 5 -16 10 -16 6 0 10 4 10 9 0 6 -4 13 -10 16 -5 3
-10 -1 -10 -9z"/>
<path d="M140 190 c-20 -12 -9 -21 18 -13 12 3 19 9 16 14 -7 11 -15 11 -34
-1z"/>
<path d="M220 165 c0 -8 5 -15 10 -15 6 0 10 7 10 15 0 8 -4 15 -10 15 -5 0
-10 -7 -10 -15z"/>
<path d="M1920 161 c0 -8 -220 -46 -480 -81 -447 -61 -516 -70 -530 -74 -8 -2
35 -4 97 -5 66 -1 170 7 254 19 162 24 229 22 94 -2 l-90 -16 338 -1 337 -1 0
50 c0 28 -2 50 -4 50 -16 0 -445 -62 -461 -67 -14 -3 -17 -2 -10 5 10 10 107
28 275 52 172 24 200 32 200 57 0 13 -4 23 -10 23 -5 0 -10 -4 -10 -9z"/>
</g>
</svg>
